<svg id="Group_97" data-name="Group 97" xmlns="http://www.w3.org/2000/svg" width="690" height="398.911" viewBox="0 0 690 398.911">
    <path id="Path_364" d="M1518.148,613.554c-3.912-4.461-5.034-9.806-5.487-15.564-.16-2.031-2.652-3.829-2.981-5.908-.672-4.249-4.458-7.841-2.629-12.633.234-.612-.544-1.61-2.183-3.484-.391.957-.514,2.314-1.226,2.791-1.711,1.144-3.872.648-3.491-1.546.827-4.764-2.392-7.3-4.634-10.486-1.179-1.676-2.064-3.559-3.243-5.632l-3.066,3.521c-2.265-.295-4.9-.39-5.029,3.88-.038,1.2-2.073,2.358-3.233,3.495-1.945,1.906-3.927,3.775-5.885,5.669-.459.444-.8,1.147-1.339,1.352-3.493,1.327-3.983,3.472-3.377,7.156.621,3.772.51,8.062-2.51,11.272a6.352,6.352,0,0,1-3.155,1.683c-.312.068-1.1-1.48-1.476-2.369-2.221-5.294-4.47-10.578-6.526-15.937a37.819,37.819,0,0,1-2.114-7.651,46.159,46.159,0,0,1-.073-6.966,25.128,25.128,0,0,1-5.069.69c-1.014-.073-2.7-.862-2.826-1.558-.689-3.841-3.57-5.676-6.305-7.738-.465-.351-.708-1-1.323-.667l-7.885-1.515c-3.416,2.622-9.913.951-11.677-4.179-2.721,2.063-5.651,2.742-8.428.42-2.187-1.828-4.068-4.022-6.085-6.053l.685-.955H1400.1c2.23,2.742,4.031,5.036,5.922,7.255,1.3,1.53,3.478,2.01,3.452,4.991-.022,2.537,4.938,2.851,6.984.479a20.823,20.823,0,0,0,1.584-2.3c2.838,2.378,5.421,4.52,7.979,6.691,2.057,1.746,1.628,3.485-.077,5.2-.613.616-1.678,1.227-1.723,1.9-.427,6.385-6.342,6.887-10.151,9.587-2.133,1.512-4.505,2.687-6.761,4.029-3.712,2.208-8.847,1.043-11.786,5.45-1.121,1.68-4.568-.713-4.082-3.591,1.122-6.638-3.381-10.765-6.1-15.728-1.227-2.235-2.3-4.554-3.5-6.8-1.019-1.908-2.131-3.766-3.188-5.653-.836-1.492-1.59-3.033-2.5-4.48a7.641,7.641,0,0,0-1.928-2.207c-1.538-1.086-3.213-1.977-5.965-3.629,2.28,3.24,3.883,5.716,5.692,8.03,1.643,2.1,4.02,3.837,2.2,7.035a1.991,1.991,0,0,0,.2,1.836c4.668,5.046,5.9,11.857,9.178,17.6,1.138,1.991,3.326,3.407,4.352,5.431,4.061,8.01,10.619,9.338,17.67,3.351.175-.148.471-.154.95-.3l2.8,3.189c-2.042,4.93-3.461,10.084-6.181,14.422a43.162,43.162,0,0,1-9.845,10.666c-8.109,6.375-11.041,16.059-8.212,26.044,1.394,4.921,3.255,10.387-.155,15.5-.341.51-.748,1.341-1.174,1.373-4.52.345-5.521,4.971-8.59,7.1-.861.6-.819,2.8-.821,4.26,0,2.031.662,4.1.423,6.078-.143,1.185-1.375,2.308-2.284,3.306-.641.7-2.279,1.194-2.247,1.7.276,4.331-2.868,7.216-4.339,10.779a13.316,13.316,0,0,1-2.446,3.3c-1.209,1.4-2.588,2.664-3.755,4.1-1.115,1.37-8.167,3.345-9.971,3.151-1.377-.148-3.363.127-4.18,1.029-2.258,2.491-4.359,1.254-6.149-.029-1.991-1.427-3.55-3.462-1.484-5.677-1.247-2.907-2.325-5.626-3.58-8.261-.665-1.4-1.934-2.547-2.4-3.981-.768-2.351-1.073-4.85-1.632-7.273-.827-3.578-.944-7.592-2.723-10.621-3.64-6.2-4.434-11.831.135-17.77,3.148-4.091-.131-8.167-.317-12.246a18.424,18.424,0,0,0-1.427-7.008c-1.062-2.208-2.954-4.062-4.667-5.9-1.938-2.082-3.74-3.64-1.441-6.991,1.262-1.839.929-4.955.785-7.465-.043-.74-1.811-1.7-2.937-2-3.126-.814-6.823-.531-7.358-5.16-.056-.488-1.692-1.167-2.55-1.107a9.887,9.887,0,0,0-4.788,1.168,14.2,14.2,0,0,1-10.511,2.354,7.45,7.45,0,0,0-5.561,1.674c-2.219,2.265-4.09,1.733-5.554-.08-4.479-5.543-8.684-11.309-12.987-17-.293-.387-.448-1.129-.777-1.2-4.051-.878-1.625-3.108-.921-5.038l-3.464-2.891c6.321-3.095,3.007-8.524,3.476-13.212.457-4.568.645-9.483,2.547-13.489,1.658-3.492,5.355-6.15,8.5-8.751a6.8,6.8,0,0,0,2.873-6.235c-.2-2.991.385-5.138,4.216-5.9,1.676-.335,2.769-3.582,4.164-5.559a39.549,39.549,0,0,0,4.366,1.542c.886.208,2.207.323,2.781-.167,5.138-4.38,11.464-4.56,17.656-5.232a33.675,33.675,0,0,1,6-.392c1.273.093,3.513.879,3.551,1.469.146,2.271,2.843,5.148-1.566,6.743l.127,1.153c2.294.908,4.611,1.763,6.875,2.738,2.366,1.018,4.686,2.143,7.018,3.239,1.549.727,3.084,1.484,4.632,2.232.594-1.975.807-3.672,1.585-5.049,1.291-2.281,2.917-2.438,5.46-1.088,2.895,1.536,5.464,4.12,9.287,3.789,1.135-.1,2.382,1.106,2.544,1.188,2.681-.515,4.681-1.521,6.273-1.075,3.366.944,4.975-.47,5.794-3.268a42,42,0,0,0,1.553-9.27c-4.12,1.581-7.7-2.1-11.8.054-1.033.544-4.4-1.637-5.466-3.336-1.116-1.77-.819-4.466-.986-6.769-.035-.475.607-1,1-1.6l-5.044-.732-3.417,3.971,2.763,2.085c-.7,1.115-1.19,2.8-2.028,3-1.22.288-3.453-.068-3.926-.9-1.907-3.365-3.061-7.16-5-10.506-.96-1.66-3.131-2.573-4.535-4.035-2.054-2.137-3.9-4.473-5.861-6.7a17.825,17.825,0,0,0-1.622-1.41c-.6.9-1.407,1.574-1.458,2.3-.143,2.051,5.307,8,7.074,9.057,2.45,1.467,4.5,3.607,6.716,5.46l-.783,1.033-2.544-.673-3.977,8.072-4.271-2.588.309-.886,4.039-.472c1.462-4.095-2.1-5.4-4.1-7.361-2.708-2.644-5.711-4.984-8.587-7.455l.487-1.353-6.387,3.143-5.4-1.313.584,1.283c-2.17,2.469-4.232,5.047-6.555,7.363-1.238,1.234-3.022,1.646-1.64,4.2.462.855-1.673,2.938-2.276,4.585-1.18,3.219-3.415,1.75-5.45,1.488-1.772-.228-3.8,3.439-5.382-.378-.157-.38-.939-.9-1.178-.787-3.958,1.787-4.656-1.514-5.834-3.811a3.012,3.012,0,0,1,.021-2.7c2.489-2.483,1.8-5.364,1.424-8.255-.337-2.586.476-4.376,3.4-4.2,1.9.114,3.781.638,5.682.894,1.76.236,3.534.359,5.517.553.353-2.269,1.4-4.778.88-6.908-.46-1.894-2.654-3.365-4.076-5.028-.6-.706-1.187-1.427-1.779-2.141.7-.425,1.411-.84,2.107-1.277,1.362-.855,2.716-1.721,3.939-2.5a33.964,33.964,0,0,0,5.439-2.222,60.575,60.575,0,0,0,5.883-4.85c-.273-4.723,5.18-3.808,9.228-5.6-.328-1.354-.34-2.96-1.067-4.116-2.38-3.783-2.272-4.377,2.181-5.893a6.7,6.7,0,0,1-.707-1.9,1.83,1.83,0,0,1,.727-1.39,1.6,1.6,0,0,1,1.343.22c.358,1.973.633,3.965.842,5.961.187,1.789-.19,3.827.575,5.287.4.761,2.732.475,4.18.725,4.044.7,7.206-2.788,11.746-1.817,3.226.69,3.044-4.2,3.944-6.815a33.284,33.284,0,0,0,.876-4.256l4.381,2.674,1.034-.775c-2.538-2.254-3.38-4.453.841-6.953-6.02-.012-8.162-3.212-8.428-7.523-.1-1.6,1.423-3.37,2.4-4.942a14.065,14.065,0,0,1,2.174-2.044c1.074-1.082,2.1-2.212,3.71-3.916-1.454-.429-3.231-1.528-4.666-1.187-1.08.257-1.627,2.436-2.58,3.623-1.428,1.779-2.714,3.93-4.584,5.036-3.1,1.834-4.312,4.7-1.951,7.389,2.813,3.208,3.133,5.6-.408,8.725-2.173,1.915-3.111,5.183-4.846,7.675-.512.736-1.852.895-2.813,1.318-.325-.82-.611-1.658-.983-2.455-1-2.143-1.7-4.554-3.192-6.287-.809-.943-3.038-1.142-4.512-.919-1.9.288-3.69,1.334-5.543,2.06-1.291-3.526-2.509-6.457-3.428-9.479-.846-2.78,1.031-5.749,4.115-6.865,5.413-1.959,8.558-5.863,10.962-11.044,1.619-3.489,3.705-7.128,8.678-7.8,2.834-.384,5.432-2.517,8.441-4.013l-3.124-4.063h8.013v-2.189c3.16-1.053,6.107,2.363,9.1.02.193-.151,1.156.216,1.314.552,2.52,5.345,8.664,5.022,12.635,8.1,1.292,1,3.121,1.294,4.455,2.257,1.016.735,2.431,2.191,2.25,3.014a4.748,4.748,0,0,1-2.791,3.195c-2.369.5-4.916.149-7.618.149a9.9,9.9,0,0,0,4.5,8.164c.114-1.558.229-3.139.344-4.72l4.5,2.107c3.278-.106-3.41-3.908,1.342-4.641a68.37,68.37,0,0,0,6.821-1.8l-2.326-6.934c3.139-1,5.068-.449,5.53,2.766.361,2.512,1.946,3.019,3.356,1.339,3.746-4.461,8.932-4.157,13.873-4.906,1.883-.286,3.714-.915,6.03-1.506l1.559,2,.742-.125c-.132-1.444-.265-2.888-.419-4.567,6.011-1.165,10.9.689,14.677,5.873l.871-1.024c-.784-1.279-1.521-2.59-2.361-3.831-1.763-2.607-4.518-4.989-.551-8.153.879-.7.535-2.764,1.2-3.954.711-1.282,1.9-3.118,2.956-3.169,1.14-.055,3.031,1.457,3.429,2.669,1.194,3.63,1.824,7.446,2.659,11.193.084.374-.051.832.115,1.146,2.346,4.425,3.482,8.478-3.8,10.142l.986,1.237c1.478-.3,3.2-.242,4.363-1.015,1.046-.693,1.658-2.235,2.159-3.521,1.85-4.75,1.8-4.768,6.036-2.514-.546-3.2-1.392-3.649-4.49-2.885-.8.2-2.518-.251-2.6-.653-.828-4-1.416-8.059-2.014-12.109-.043-.289.375-.647.787-1.306l4.984,7.791,1.115-.535c-.14-.871-.7-2.152-.336-2.529.832-.856,2.55-2.05,3.151-1.722,2.572,1.4,4.87,3.311,7.875,4.694-1.367-1.585-2.8-3.115-4.075-4.774-.838-1.095-2.149-2.526-1.937-3.529.209-.986,1.992-2.1,3.229-2.307a44.412,44.412,0,0,1,7.111-.1l-2.7-4c1.3-.742,2.58-1.537,3.917-2.214,3.041-1.54,6.558-.786,9.816-2.636,2.395-1.36,6.268-.131,9.481-.02a13.411,13.411,0,0,1,1.878.336,10.027,10.027,0,0,1,.679-3.018c.86-1.4,1.851-3.38,3.121-3.674,1.351-.312,3.5.662,4.567,1.774,1.716,1.781,2.661,3.223,5.513,1.332,2.369-1.571,10.016,1.59,10.478,4.357.287,1.722-1.393,4.128-2.8,5.665-1.117,1.22-3.2,1.52-4.786,2.359a6.542,6.542,0,0,0-2.208,2.041c11.8-3.633,17.073-3.411,28.867,1.46,3.268-4.119,7.847-5.029,10.727-1.815.772.862.361,2.785.577,5.14,3.763,2.57,6.788,2.638,8.089.254l14.078,1.329c-2.439-3.8-.33-5.077,1.848-5.76,4.238.775,7.175,3.782,11.49,2.716,1.57-.388,3.709.45,5.27,1.308,3.893,2.14,7.246,4.981,12.426,3.093,2.964-1.081,6.314.049,8.568,2.982a27.634,27.634,0,0,0,3.453,3.245c5.1-4.885,10.129-.519,15.35-1.107.568-2.416,2.2-2.285,5.032-2.374,5.607-.175,9.987,3.118,15.157,3.749a2.954,2.954,0,0,1,1.773.7c2.67,3.093,6.8,3.416,10.008,5.431a6.139,6.139,0,0,1,1.61,1.989c3.949.391,7.491.681,10.993,1.228.233.036.62,2.406.117,3.026-.695.856-2.168,1.079-3.535,1.671a6.121,6.121,0,0,1,1.009,1.838,12.458,12.458,0,0,1-.143,2.729,10.427,10.427,0,0,1-3.027-.3,52.844,52.844,0,0,1-8.163-3.886c-1.6-1.019-2.668-2.88-4.531-5v5.111l-3.661,2.551c2.151,2.535,7.433,2.691,5.767,7.847-7.263-1.449-10.341.389-12.947,7.164-2.4-.568-5.13-2.152-6.938-1.432-3.172,1.264-7.583,2.155-7.384,6.743l4.755,4.688-7.477,17.4c-1.4-1.108-2.526-1.548-2.821-2.312-2-5.163-6.2-10.065-4.384-15.857,1.183-3.781,4.058-7.179,6.692-10.315,2.332-2.776,2.656-2.562.583-5.335a23.937,23.937,0,0,0-1.464,2.165c-.942,1.778-1.743,1.577-3.234.356-1.338-1.1-3.809-2.516-4.771-1.981a8.347,8.347,0,0,0-3.448,4.994c-1.245,5.25-2.689,5.918-7,2.836-.723-.517-2.2-.149-3.282.042-1.574.277-3.094,1-4.667,1.107-2.424.167-4.968-.449-7.28.073a9.99,9.99,0,0,0-4.817,3.2c-1.228,1.395-1.665,3.454-2.662,5.092a52.62,52.62,0,0,1-3.266,4.339l4.877,4.085c2.374-2.247,4.334-2.164,6.27.681a8.871,8.871,0,0,1,1.681,4.23c.354,7.1.714,14.24-3.746,20.507-2.224,3.125-3.417,7.512-8.9,5.983-.723-.2-2.336,1.177-2.858,2.178-1.276,2.45-2.154,5.107-3.048,7.322,1.7,2.784,3.973,5.718,5.382,9.019a4.081,4.081,0,0,1-3.636,5.8c-.891,0-2.473-1.173-2.558-1.94-.476-4.292-1.766-7.936-6.259-9.875l2-2.679c-3.353-2.923-5.158,2.1-8.172,1.187l-1.143-4.972a43.657,43.657,0,0,0-4.773,4.7,2.95,2.95,0,0,0,.435,2.9c.783.6,2.2.572,3.319.491,1.51-.109,3.263-1.153,4.433-.66,1.763.742,2.188,2.4.031,3.741-4.225,2.623-4.8,4.54-1.238,8.182,3.651,3.729,2.776,8.592,4.381,12.784a2.873,2.873,0,0,1-.537,2.116c-1.292,2.011-3.269,3.4-3.26,6.411,0,1.435-2.847,2.722-4.024,4.351-2.113,2.925-4.594,3.73-8.283,3.738-2.676.006-5.347,2.471-8.271,3.968l-1.837-2.812a18.264,18.264,0,0,1-1.964,3.025c-3.635,3.616-3.724,5.056.422,8.411,4.692,3.8,6.506,8.7,4.2,14.009-1.453,3.346-4.879,5.836-7.779,9.117-2.056-3.054,1.247-9.136-5.173-7.063a8.005,8.005,0,0,1-.539-.8,33.369,33.369,0,0,0-2.076-4.154c-.151-.227-2.146.258-2.184.553a19.044,19.044,0,0,0,.02,4.76c.6,4.71,4.509,7.193,7.353,10.308,2.891,3.166,1.967,6.757,1.643,10.244-.037.4-2.726.563-4.185.835Zm-149.5-111.613-3.774-4.811c-.57,1.848-.865,3.02-1.3,4.138-.362.935-.733,2.458-1.361,2.606-5.628,1.319-3.229,6.148-5.348,10.23,5.813-1.268,10.463-2.34,15.145-3.24.716-.138,1.577.547,2.386.806,2.935.941,5.842,2.011,8.836,2.7.856.2,2.66-.57,2.815-1.2a4.093,4.093,0,0,0-.793-3.5,42.6,42.6,0,0,0-7.96-5.415c-1.152-.582-3.01.154-4.529.4-2.205.354-4.394.806-6.591,1.217l-.867-1.735Zm41.3-2.738-.828-.894c-1.318,0-2.861-.445-3.908.087-2.625,1.335-5.423,2.753-7.341,4.871-.895.988-.5,4,.345,5.523,1.565,2.817,3.89,5.211,5.968,7.871-3.607,4.975-3.517,6.254,1.634,9.2,1.095.625,3.132.329,4.364-.287.749-.375,1.232-2.246,1.055-3.317a75.7,75.7,0,0,0-1.967-7.363,5.518,5.518,0,0,1,.049-1.344l2.757,1.129c.084-.737.084-.737-3.691-2.411-.145-.84-.312-1.813-.477-2.77-4.374-.491-5.072-1.917-2.468-5.514A48.332,48.332,0,0,1,1409.939,499.2Zm14.275,6.6a32.366,32.366,0,0,0,4.76,1.97c2.419.51,2.278-1.333,2.18-2.842-.089-1.371-.408-2.725-.608-4.09-.055-.377.044-1.058-.084-1.1-.995-.313-2.759-.946-2.932-.66A73.179,73.179,0,0,0,1424.214,505.808Zm-52.959-5.253.282,1.207,3.511.922,4.72-4.95-.408-.524Z" transform="translate(-978.865 -366.165)" fill="#fff"/>
    <path id="Path_365" d="M283.412,499.97c.452-3.108,2.651-5.032,5.127-6.269.678-.338,3.2,1.379,3.671,2.613.938,2.445,1.039,5.211,1.589,8.458,2.135-1.416,3.94-4.546,4.641-.233.218,1.337.034,2.74.8,4.389,1.427-2.53,2.537-5.34,4.423-7.463.848-.955,3.476-1.1,4.852-.537.88.361,1.121,2.677,1.311,4.159.1.8-.524,1.689-.781,2.55-.426,1.43-.412,3.66-1.318,4.128-1.477.763-3.547.411-5.368.463-.832.023-2.374-.276-2.4-.158-1.033,4.561-4.083,2.153-6.03,1.775.756,1.371,2.468,3.144,2.094,4.113-.542,1.405-2.785,2.051-3.962,3.333-4.493,4.894-11.656,7.475-13.451,14.719l1.018-.006c.853,1.579,2.1,3.073,2.461,4.756.472,2.231,1.517,2.407,3.5,2.457a9.264,9.264,0,0,1,4.629,1.85c3.015,2.082,5.638,4.909,9.98,4.15,1.491,3.783-2.856,8.1.931,11.61,4.525-.1,5.908-2.543,5.452-6.723-.251-2.308.057-4.343,2.661-5.843.982-.566.855-3.653.655-5.53-.268-2.517-2.242-5.052,1.189-7.08.607-.359.266-2.324.362-3.548a24.33,24.33,0,0,1,.479-5.25c.742-2.388,2.165-3.867,4.821-1.73.606.487,1.672.362,2.482.645a28.849,28.849,0,0,1,5,1.96,7.552,7.552,0,0,1,3.334,3.484c.343,2.486-.172,6.386,1.18,7.205,5.1,3.092,5.708-3.088,8.435-5.305,1.814,2.874,3.334,5.705,5.277,8.208,1.22,1.573-2.39,2.635.134,4.529,1.3.973,2.077,2.753,4.019,3.387.694.227,1,1.63,1.848,3.139,2.245.7,4.12,4.794,2.672,7.66-.157.31-.47.721-.754.759-6,.807-11.089,5.187-17.882,3.692-2.481-.546-5.726,2.377-8.375,4.343,3.214.3,5.475-4.776,9.1-1.035-1.716,3.731-.889,5.195,3.219,6.459a15.457,15.457,0,0,1,3.284,1.99c-1.045.811-2.063,1.66-3.141,2.424a37.857,37.857,0,0,1-5.08,3.37c-1.088.531-2.517.363-3.793.509l-.4-1.421,6.511-5.424-.8-1.13c-1.3.911-2.645,1.773-3.9,2.744-2.106,1.626-3.927,3.9-6.291,4.848-3.474,1.388-5.218,2.983-3.542,6.107-2.91,1.623-5.576,3-8.11,4.589a6.3,6.3,0,0,0-1.759,2.364c-.871,1.578-1.627,3.22-2.783,5.541.806,5.237.753,5.34-5.023,8.508-7.67,4.207-8.562,6.282-6.781,15.1.685,3.393,1.134,6.834,1.832,11.118-5.5-2.658-7.127-6.183-6.864-10.8a4.3,4.3,0,0,0-.12-1.831c-1.3-3.084-10.2-5.21-12.525-2.888-.582.583-.383,1.946-.713,4.015l-6.056-3.276-1.023,1.763c-.87-.614-1.745-1.232-2.618-1.852-.226.078-.54.088-.672.248-3.282,4-8.3,7.094-8.22,12.981a38.851,38.851,0,0,0,1.94,12.333c.491,1.382,4.161,2.366,6.286,2.215a7.433,7.433,0,0,0,5.3-3.331c1.449-2.842,3.193-4.3,6.251-4.027,2.009.178,2.908,1.329,2.314,3.458-.989,3.549-1.889,7.122-2.694,10.18l9.751,1.939c-.609,3.105-1.206,5.436-1.5,7.8-.646,5.2,2.206,7.33,7.367,6.65,2.03-.268,4.33,1.5,6.872,2.484.684-4.555,5.2-6.54,8.836-9.061,1.335-.925,4.72-.436,6.2.687,4.295,3.261,8.4,5.408,13.806,2.744a2.789,2.789,0,0,1,3.169.79c1.661,1.961,3.228,4.013,5.01,5.856,1.8,1.86,3.809,3.513,5.8,5.326,3.549-3.5,6.046.329,8.4,2.288,5.231,4.354,6.11,8.4,3.946,12.477,1.541.424,3.16.928,4.808,1.293a5.931,5.931,0,0,0,2.074-.047,8.15,8.15,0,0,1,7.289,2.405c1.58,1.456,4.505,1.4,6.772,2.179,2.252.777,4.7,1.385,6.58,2.743,2.773,2.007,6.077,4.143,6.318,7.9.137,2.147-1.015,4.584-2.16,6.559-1.909,3.294-4.3,6.309-6.428,9.478a2.025,2.025,0,0,0-.24,1.493c2.019,7.167-2.065,13.331-3.561,19.864-.347,1.514-3.814,2.736-6.046,3.315-6.182,1.6-7.9,4.405-9.283,10.727-.813,3.718-1.756,8.3-5.85,10.685-.509.3-.7,1.113-1.079,1.662-1.518,2.2-2.677,4.912-4.724,6.387-1.189.857-3.813-.276-5.753-.51.391,2.722,5.106,5.354,1.813,8.423-2.311,2.154-6.04,2.786-9.422,4.219-.789,6.714-.789,6.714-5.518,4.6-.114.2-.378.487-.32.589,2.795,4.866,2.32,8.391-2.084,12.145-2,1.706-2.157,2.521.339,3.739a3.508,3.508,0,0,1,1.634,2.867,23.757,23.757,0,0,1-2.222,6.219c-2.448,4.834-2.524,4.8-1.969,8.876l8.9,5.161c-6.775,3.292-9.492,2.455-10.012-2.932l-1.685,3.075c-3.37-4.077-6.474-7.8-9.529-11.559-.561-.691-1.455-1.676-1.3-2.295,1.014-3.959-1.3-7.977.537-11.975,1.1-2.4,1.517-5.171-1.107-7.281a2.481,2.481,0,0,1-.657-1.55c-.413-3.66-.924-7.32-1.061-10.994A15.156,15.156,0,0,1,311,787.068c1.108-3.4,2.61-6.614.655-10.335-.676-1.288-.351-3.283-.045-4.871.947-4.912,2.751-9.75,3.01-14.68a73.979,73.979,0,0,0-1.39-16.619c-.314-1.773-2.525-3.905-4.349-4.587-5.869-2.193-8.408-6.856-10.585-12.138-1.828-4.433-3.936-8.758-6.1-13.037-.542-1.069-2.558-1.771-2.566-2.654-.02-2.042.775-4.092,1.482-7.21-1.58-2.994-1.067-6.041,2.468-9.554,5.069-5.038,5.861-10.149,2.452-15.311-.49-.741-.648-1.7-1.571-2.387-1.306,3.771-2.61,3.911-5.043,2.241-2.494-1.712-5.774-2.369-8.049-4.276-1.672-1.4-2.508-3.991-3.3-6.2-1.137-3.161-3.732-3.9-6.471-4.766a11.046,11.046,0,0,1-4.47-2.328c-2.027-2.044-3.831-3.486-7-2.407a6.141,6.141,0,0,1-4.433-.706c-4.9-2.8-9.671-5.821-14.414-8.88a2.674,2.674,0,0,1-.974-2.217c.722-3.641-1.615-5.888-3.381-8.529-3.117-4.658-7.07-8.808-8.442-14.575-.386-1.624-2.29-2.886-3.5-4.315l-1.207.7,11.168,21.189c-4.344.832-6.24-1.886-6.643-4.029-.743-3.944-2.959-5.994-6.747-7.336,2.4-3.143,1.469-5.47-.914-7.516a1.8,1.8,0,0,1-.654-.929c-.685-4.737-1.449-9.4-7.009-11.039.636-2.648-4.253-3.891-1.808-7.057.143-.186-.245-1.035-.594-1.311-5.217-4.112-2.257-9.288-1.615-13.986.492-3.6,1.989-7.057,2.931-10.606a4.849,4.849,0,0,0,.026-2.835,72.6,72.6,0,0,1-3.8-15.44,2.18,2.18,0,0,0-.8-1.133c-2.287-1.9-3.722-4.05-2.41-6.568-1.684-2.045-3.1-3.815-4.57-5.531a12.4,12.4,0,0,0-2.776-2.818c-1.594-.931-3.824-1.037-5.077-2.234-2.513-2.4-4.843-4.515-8.694-3.814-.567.1-1.282-1.364-2.079-1.606-1.624-.493-3.431-4.169-5.023.509-.687,2.021-3.256,3.546-5.234,4.912-.8.556-2.314.092-3.5.092l-.646-1.189,5.724-6.4A4.738,4.738,0,0,0,171,530.4c-1.834.466-7.353,8.061-7.409,10.052-.012.429.522.877.5,1.3a17.336,17.336,0,0,1-.546,4.117c-.093.305-2.108.416-2.147.286a28.424,28.424,0,0,1-.686-3.96,44.72,44.72,0,0,1-5.6,4.424,139.726,139.726,0,0,1-13.288,6.793c-1.275.56-3.137-.215-5.824-.49,6.475-5.741,15.81-5.134,19.77-13.943-3.005.36-4.967,1-6.8.734-4.143-.591-.5-3.083-.945-4.634-4.027.3-4.279-.042-3.841-3.625.1-.791-.977-1.726-1.267-2.2,1.364-1.9,2.237-3.973,3.8-5.055,1.617-1.121,3.979-1.1,5.864-1.923a8.115,8.115,0,0,0,3.461-3.381c-5.855,4.054-8.658.756-10.9-4.1,3.876-5.013,9.82-1.431,15.519-2.992a22.1,22.1,0,0,0-2.616-1.253c-1.219-.365-2.744-.259-3.656-.972a29.222,29.222,0,0,1-3.755-4.225,21.5,21.5,0,0,1,4.631-1.561c2.08-.219,3.858-.4,4.231-2.933.071-.485.282-1.209.625-1.352,2.782-1.163,5.589-2.278,8.436-3.271a21.612,21.612,0,0,1,4.01-.835c.729-.106,2.06-.184,2.154.076,1.432,3.941,3.412,1.454,5.492.189,1.615,3.986,4.783,2.4,7.692,2.608a60.092,60.092,0,0,1,22.234,5.545,20.223,20.223,0,0,0,2.476.849c3.1-4.888,7.062-7.223,10.328-5.754l-2.749,2.016.325.637a18.259,18.259,0,0,0,3.378-1.826A15.893,15.893,0,0,0,226.1,496.6c2.165,4.411,5.533,4.4,9.233,3.486a4.286,4.286,0,0,1,1.867.231c3.817.9,7.611,1.915,11.448,2.721,2.653.558,3.16,1.1,2.9,4.823,4.35-5.067,6.206,1.19,9.376,1.792,1.086-5.422,2.148-5.85,6.6-2.983,2.578,1.662,7.657,1.251,10.311-.745,1.877-1.411,3.709-1.854,5.4,1.823,1.33-1.971,2.853-3.323,3.033-4.836.106-.89-1.92-2.033-2.987-3.063Z" transform="translate(-136 -440.671)" fill="#fff"/>
    <path id="Path_366" d="M999.015,339.392c-2.358,7.451-8.4,11.249-15.951,9.838-3.087-.577-4.441,1.067-4.741,3.6-.329,2.778-1.931,3.717-4.314,4.044-2.037.28-4.071.633-6.119.77-2.833.189-3.84,1.321-4.547,4.372-1.094,4.725-3.428,9.206-5.635,13.591-.443.881-3.391,1.653-3.951,1.137-3.783-3.487-9.232-5.513-9.661-12.054-.217-3.307-2.379-6.447-3.333-9.758-.783-2.718-.6-5.289,2.357-7.038,1.243-.735,2.029-2.243,3.023-3.4-1.159-.9-2.31-1.818-3.484-2.7-.383-.288-.829-.495-1.7-1l3.7-2.1q.048-.55.1-1.1l-3.629-.387c-1.174-4.145-2.086-8.633-3.731-12.835-1.843-4.708-3.674-5.377-8.738-4.809-4.078.457-8.268,1.288-11.749-1.922a15.819,15.819,0,0,1-1.522-2.051l6.46-.856q.009-.738.018-1.477c-1.444-.138-2.888-.28-4.333-.414-1.611-.149-3.222-.289-4.834-.433,1.3-.875,2.565-1.821,3.918-2.61,3.045-1.776,6.136-3.474,9.692-5.477-.613-3.248,1.008-5.217,5.182-5.068a3.287,3.287,0,0,0,2.474-1.583c1.614-3.377,4.969-3.884,7.9-4.718,1.411-.4,3.265.755,5.1,1.255,1.621-1.964,3.3-1.988,4.328.167a11.522,11.522,0,0,0,1.888,2.255c.369-.944.743-1.886,1.1-2.833.129-.338.225-.688.544-1.677l7.558,1.882c.137-1.28.322-3,.509-4.749.489-.109.96-.378,1.188-.241,3.539,2.118,5.871,1.274,9.164-1.533,3.8-3.242,9.375-3.076,14.44-2.275.669.106,1.2,1.055,2.378,2.155l-6.851,2.218q.034.468.067.937c5.855-.161,11.881-5.334,17.582-.931q.025.612.049,1.223l-7.891,1.275,2.083,4.378,5.657-2.708.9.829-3.5,5.8c1.61-.772,2.629-.976,3.223-1.591,3.545-3.672,8.219-3.988,12.814-4.232,1.442-.077,2.947,1.013,4.422,1.569-1.1,1.06-2.019,2.593-3.331,3.087-3.336,1.257-6.847,2.049-10.636,3.126l3.525,2.031a55.247,55.247,0,0,0-5.182,3.711c-.745.67-1,1.888-1.471,2.859a22.67,22.67,0,0,1,2.629.808c1.227.538,2.4,1.208,3.588,1.822-.6,1.023-.98,2.31-1.839,3.018-2.007,1.654-1.882,3.132.614,4.378.567.283,1.087.657,2.671,1.629l-9.5,8.359-3.608-1.2-.921.932c.76.79,1.551,1.553,2.274,2.375a45.334,45.334,0,0,1,3.568,4.383c.1.142-1.286,1.288-1.982,1.968-1.4-.709-2.84-1.359-4.2-2.144-2.04-1.178-3.49-1.044-4.54,2.643Z" transform="translate(-715.741 -284.705)" fill="#fff"/>
    <path id="Path_367" d="M2407.9,1376c.509,1.7.958,2.973,1.26,4.276.369,1.593.088,3.673,1.014,4.736a13.56,13.56,0,0,1,3.712,10.211c-.155,2.285.287,4.075,2.837,4.7a2.19,2.19,0,0,1,1.281.767c2.573,4.223,5.128,8.458,7.573,12.755a4.754,4.754,0,0,1,.3,2.585c-.332,3.966-.733,7.926-1.15,11.885a4.573,4.573,0,0,1-.548,2.181c-2.195,2.929-4.575,5.72-6.741,8.67-1.146,1.562-1.973,3.357-2.976,5.026a7.142,7.142,0,0,1-1.332,1.849c-5.09,4.274-15.107,4.525-20.105.4a3.508,3.508,0,0,1-1.172-2.918c1.31-3.8-.668-4.291-4.017-3.968l2.463-4.923-5.919,5.031a20.468,20.468,0,0,1-.825-2.262,8.016,8.016,0,0,0-11.225-5.51c-1.456.643-3.174.667-4.737,1.1s-3.843.571-4.442,1.62c-2.369,4.147-6.044,3.564-9.771,3.625-1.758.029-3.5.794-5.255,1.225.022.37.043.74.065,1.111a29.723,29.723,0,0,1-3.477-1.475c-3.088-1.78-3.247-3.45-.915-6.131a4.285,4.285,0,0,0,1.222-2.818c-.286-2.224-.493-4.741-1.675-6.51-2.875-4.3-1.091-9.059-1.937-13.524-.435-2.29-.056-4.583,3.332-4.1.24.035.63,0,.735-.154,3.125-4.554,8.787-3.8,12.826-6.231,2.253-1.355,3.536-4.321,5.742-7.194,1.347-1.139,3.8-2.639,5.468-4.754,2.666-3.372,3.479-3.722,6.139-.639,1.475,1.71,2.62,1.355,2.828-.538.408-3.708,2.405-5.073,6.476-4.641l-2.7-3.663a19.419,19.419,0,0,1,3.823.039c2.551.615,5.03,1.536,7.586,2.121,2.221.508,1.948,1.65,1.021,3.042-.88,1.322-1.855,2.579-2.983,4.134,2.861,2.088,5.337,4.013,7.957,5.718.608.4,2.29.343,2.479-.021.9-1.743,2.054-3.673,2.025-5.52C2404.107,1383.532,2403.564,1379.805,2407.9,1376Z" transform="translate(-1782.048 -1099.266)" fill="#fff"/>
    <path id="Path_368" d="M807.694,490.671l3.164,4.845c-1.6,0-2.75.34-3.483-.065a31.113,31.113,0,0,1-5.724-3.887c-2.675-2.394-4.905-5.413-9.161-2.6-.494.326-2.305-1.344-3.506-2.089.822-1.211,1.441-2.676,2.533-3.549.794-.635,2.216-.47,3.352-.694,3.641-.717,6.009-3.388,5.819-6.542-.167-2.76-1.271-3.462-6.034-3.676,0-.7.275-1.6-.054-2.09a25.951,25.951,0,0,0-2.875-3.422c-4.295,3.38-8.867-2.222-13.24.469-1.2.739-3.64.577-2.781-2.393a1.666,1.666,0,0,0-.659-1.416c-3.525-2.089-1.812-5.084-.926-7.452,1.029-2.75,3.225-4.6,6.8-3.316l-1.393,5.382.939.443c1.949-3.322,2.577-8.718,8.364-6.323,3.838,1.588-.673,3.819-.184,5.128,2.419-.773,4.621-1.662,6.909-2.164,3.264-.716,3.954,1.866,5.05,4.11a6.447,6.447,0,0,0,2.826,2.4,43.078,43.078,0,0,0,4.665,1.81c4.981,1.914,5.533,3.633,1.9,8.635,2.15,1.176,4.227,2.281,6.271,3.44,1.624.921,4.649,2.118,4.547,2.829-.323,2.234-1.748,4.347-2.991,6.357-.141.228-2.062-.237-2.747-.844-1.13-1-1.765-2.583-2.935-3.506-.492-.388-1.817.28-2.763.468.244,1,.186,2.277.8,2.924,1.088,1.151,3.406,1.7,3.718,2.895.5,1.9-.234,4.113-.549,7.209l-5.229-3.732Z" transform="translate(-611.405 -409.353)" fill="#fff"/>
    <path id="Path_369" d="M812.052,314.215c-6.439.993-14.016,6.573-17.6-3.463a40.533,40.533,0,0,1,6.146-3.218c1.109-.368,2.583.506,3.907.6s3.449.426,3.895-.238c1.627-2.421,3.686-2.285,6.074-2.089,1.076.088,2.207-.5,3.737-.885l2.835,2.648c2.141-4.024,5.7-3.506,9.192-3.255a77.546,77.546,0,0,1,8.417.582c1.4.256,2.6,1.578,3.886,2.418-1.038.741-1.982,1.851-3.134,2.145a66.211,66.211,0,0,1-7.2,1.086c1.34,5.72-3.29,10.09-9.059,8.933a6.23,6.23,0,0,0-4.457,1.422c-2.863,2.329-5.422,5.031-8.258,7.732,1.356,2.139.567,5-3,5.414a60.3,60.3,0,0,1-13.737-.162c-1.43-.164-2.619-2.432-3.321-3.138,3.076-1.89,5.276-3.639,7.77-4.687,4.416-1.857.454-5.139,1.637-8.062l3.4,1.3a34.557,34.557,0,0,1,4.35-2.6,33.529,33.529,0,0,1,4.672-1.21Q812.132,314.851,812.052,314.215Z" transform="translate(-624.442 -299.216)" fill="#fff"/>
    <path id="Path_370" d="M571.447,459.535c2.193-.523,4.245-3.532,6.648-.378,3.045-2.365,3.754.987,5.875,2.909-1.028-5.205,3.814-5.06,5.587-7.609.2-.284,1.86.452,2.082.511-1.057,2.676-2.909,5.066-2.519,7,.414,2.06,2.954,3.692,4.782,5.755l-2.156.831c1.06,4.651.913,4.785-4.079,4.945-3.847.123-7.763.917-11.516.419-3.9-.517-7.632-2.229-11.438-3.419q-.03-.855-.06-1.71l6.138-1.908q.006-.224.012-.448a19.7,19.7,0,0,1-4.089-.071,9.139,9.139,0,0,1-2.621-1.633c.781-.62,1.535-1.28,2.35-1.852,1.64-1.15,3.314-2.252,4.973-3.373C571.414,459.509,571.447,459.535,571.447,459.535Z" transform="translate(-455.535 -411.362)" fill="#fff"/>
    <path id="Path_371" d="M2327.734,1237.249c-3.157,1.783-5.563.889-7.135-2.694-.8-1.819-2.2-3.369-3.022-5.183a5.784,5.784,0,0,1-.292-3.519c.1-.425,1.778-.307,2.542-.764a42.331,42.331,0,0,0,6.949-4.6c2.651-2.413,4.878-5.292,7.544-8.253l7.282,2.932a20.967,20.967,0,0,1-2.7,3.887c-1.989,1.794-2.635,3.261-.345,5.372a3.593,3.593,0,0,1,.4,3.264,90.249,90.249,0,0,1-4.471,8.487c-.72,1.251-1.558,2.993-2.669,3.29C2330.865,1239.724,2329.444,1238.247,2327.734,1237.249Z" transform="translate(-1764.037 -977.031)" fill="#fff"/>
    <path id="Path_372" d="M2527.227,1298.28c3.205-2.221,5.86-4.279,8.749-5.922.8-.457,2.359.155,3.476.546a89.011,89.011,0,0,0,11.6,3.6c1.054,1.356,2.168,2.671,3.149,4.078,1.385,1.988,3.81,3.266,3.427,6.49-.112.945,2.462,2.15,3.71,3.336a25.3,25.3,0,0,1,2.072,2.516,12.026,12.026,0,0,1-3.267,1.157c-3.36.169-5.353-1.9-7.045-4.552-2.075-3.26-3.473-3.3-5.671-.288-1.605,2.2-3.217,3.069-5.8,1.319-1-.678-2.557-.537-3.862-.766-.8-.142-1.611-.277-2.417-.415.224-.785.2-1.961.715-2.288,2.693-1.713,1.287-3.544-.126-4.669-1.733-1.381-3.977-2.132-6.023-3.105C2529.043,1298.907,2528.113,1298.619,2527.227,1298.28Z" transform="translate(-1920.852 -1036.713)" fill="#fff"/>
    <path id="Path_373" d="M1784.068,1399.036c-.775,2.281-1.542,4.251-2.112,6.277-1.369,4.86-3.732,9.409-3.966,14.637-.176,3.936-3.089,6.047-6.506,7.377-.452.176-1.189-.176-1.719-.435-2.626-1.286-4.026-8.207-2.256-10.585,1.365-1.833,2.668-3.3,1.158-6.224-2.014-3.907.621-6.827,5.275-8.587,1.864-.705,3.024-3.417,4.363-5.315a36.291,36.291,0,0,0,2.1-3.857c.817,1.27,1.7,2.5,2.43,3.82A26.845,26.845,0,0,1,1784.068,1399.036Z" transform="translate(-1353.195 -1111.45)" fill="#fff"/>
    <path id="Path_374" d="M1364.778,671c.815,1.616,1.436,2.944,2.141,4.226,1.473,2.678,2.147,5.832,5.046,7.673a3.121,3.121,0,0,1,.535,3.006c-1.7,2.788-3.913,4.765-7.661,4.712-2.109-.03-4.235,1.1-7.43,2.019l2.891-4.373c-.114-2.529-.2-4.341-.292-6.445l3.877-1.723-6.941-5.927c1.882-3.532,1.637-4.075-2.573-5.458l1.4-3.258,1.638,3.2c2.466-6.58,5.181-.742,7.895-.484C1365.094,669.293,1364.886,670.421,1364.778,671Z" transform="translate(-1045.413 -568.902)" fill="#fff"/>
    <path id="Path_375" d="M2215.9,1235.5l1.281.675c1.009,2.433,2.011,4.868,3.028,7.3.782,1.868,1.544,2.765,3.371.672.427-.489,2.509.467,2.918.557-.718,2.83-1.069,4.606-1.635,6.31-.4,1.206-.84,2.93-1.725,3.293-.857.351-2.732-.4-3.424-1.258-4.063-5.045-8.825-9.522-10.768-16.187-.7-2.4-4.089-4.014-6.258-5.979-.881-.8-1.781-1.574-2.673-2.36.493-.507,1.066-1.5,1.464-1.432a10.727,10.727,0,0,1,3.958,1.321C2208.989,1230.669,2212.419,1233.123,2215.9,1235.5Z" transform="translate(-1676.614 -988.112)" fill="#fff"/>
    <path id="Path_376" d="M1815.106,407.737c-1.644.69-2.676,1.057-3.648,1.542-4.551,2.272-9.341,4.188-13.569,6.959-6.614,4.334-6.763,7.4-1.482,12.77-2.2,2.645-6.031,2.131-8.117-.178-3.9-4.319-1.765-7.753.48-11.715,3.438-6.068,9.14-7.6,15.3-8.692a11.327,11.327,0,0,0,4.439-1.941C1810.843,404.813,1812.684,405.144,1815.106,407.737Z" transform="translate(-1367.683 -374.835)" fill="#fff"/>
    <path id="Path_377" d="M1493.553,356.281c2.068-1.046,3.364-2.191,4.653-2.185.9,0,1.776,1.6,2.678,2.469a21.629,21.629,0,0,0,3.484,3.214c1.622.975,3.584,1.375,5.241,2.306a2.461,2.461,0,0,1,.927,2.21,3.412,3.412,0,0,1-2.264,1.587,18.75,18.75,0,0,1-3.875-.1l-2.554-3.471c-.89,1.415-1.8,2.816-2.659,4.251-.481.807-.863,1.673-1.29,2.513-.808-.514-1.864-.852-2.375-1.575-1.5-2.118-4.985-3.65-1.853-7.057-2.23.531-4.026,1.476-5.512,1.121-.9-.214-1.608-2.4-1.831-3.793-.137-.854.656-2.026,1.352-2.746.216-.224,1.454.709,2.271.857C1491.388,356.145,1492.868,356.211,1493.553,356.281Z" transform="translate(-1143.891 -336.5)" fill="#fff"/>
    <path id="Path_378" d="M532.991,451.122s-.033-.026-.031-.026c-3.612,1.453-7.305,2.74-10.812,4.417-2.435,1.165-4.5,2.938-7.313.736-2.366-1.853-3.433-3.512-.411-5.625a.9.9,0,0,0,.267-.275c1.06-1.885,1.785-4.113,3.274-5.55,1.145-1.106,3.25-1.218,4.643-1.677,2.608.96,5.044,1.887,7.5,2.754C532.66,446.773,533.923,448.333,532.991,451.122Z" transform="translate(-417.08 -402.949)" fill="#fff"/>
    <path id="Path_379" d="M2502.424,870.93c-.479,1.49-1.548,3-1.2,4.04,1.935,5.777-3.844,9.311-9.789,7.016.059.94.113,1.784.147,2.331-1.506.357-3.033,1.185-4.311.9-1.475-.331-2.73-1.644-4.978-3.12l7.552-4.487.644.826,1.135-3.466c4.255.04,5.452-1.665,5.159-6.915a8.1,8.1,0,0,1,.315-3.205,2.19,2.19,0,0,1,1.887-.852,2.442,2.442,0,0,1,1.49,1.394C2501.232,867.223,2501.806,869.131,2502.424,870.93Z" transform="translate(-1887.313 -717.09)" fill="#fff"/>
    <path id="Path_380" d="M1243.755,570.919l-8.075-2.174,1.231-3.845-3.981.394c-.426-4.63.428-5.083,4.881-4.53,3.043.378,6.21-.274,9.323-.419,1.811-.084,4.121-1.873,4.951,1.521.727,2.972.2,5.313-2.793,6.654C1247.391,569.373,1245.468,570.179,1243.755,570.919Z" transform="translate(-954.694 -490.041)" fill="#fff"/>
    <path id="Path_381" d="M763.439,405.088c.107,5.162,3.655,5.807,7.4,6.082a37.454,37.454,0,0,0,4.635-.081c4.447-.229,5.087.562,4.171,4.606-4.869,0-9.6.013-14.335-.006-2.256-.009-9.148-5-9.259-7.18a4.357,4.357,0,0,1,2.334-3.282C759.789,404.654,761.6,405.088,763.439,405.088Z" transform="translate(-598.817 -374.444)" fill="#fff"/>
    <path id="Path_382" d="M2413.281,1261.341c.1.688.419,2.5.358,2.512-2.938.619-5.908,1.084-9.047,1.593l.748,2.875,4.667-1.453-2.618,5.975a10.013,10.013,0,0,1,1.654,2.945,15.01,15.01,0,0,1-.232,4.062,27.626,27.626,0,0,1-3.48-2.569c-.354-.347-.056-1.359-.056-2.31-.546.362-.85.45-.906.619-.408,1.25-.766,2.516-1.14,3.777-.617-.318-1.677-.532-1.778-.969-.574-2.49-4.19-4.2-1.9-7.438,1.091-1.537,2.813-3.171,2.858-4.8.126-4.5,2.4-4.069,5.555-3.44C2409.3,1262.984,2410.885,1262.01,2413.281,1261.341Z" transform="translate(-1824.993 -1013.683)" fill="#fff"/>
    <path id="Path_383" d="M2756.577,1680.034c1.253.778,3,1.279,3.449,2.333.34.791-.794,2.441-1.594,3.456-2.827,3.593-5.688,7.172-8.757,10.556-1.189,1.311-3.13,3.063-4.428,2.842-1.352-.23-3.116-2.526-3.258-4.052-.13-1.413,1.326-3.424,2.647-4.43,3.156-2.4,6.739-4.243,9.938-6.6C2755.52,1683.449,2755.76,1681.8,2756.577,1680.034Z" transform="translate(-2081.148 -1326.202)" fill="#fff"/>
    <path id="Path_384" d="M769.479,350.676c-1.338-1.4-2.7-2.774-4-4.2-.841-.923-2.441-2.189-2.237-2.845a20.37,20.37,0,0,1,3.448-6.868c.465-.563,3.307.254,4.645,1.1,4.637,2.925,5.347,4.944,4.082,8.745C774.533,349.244,772.9,350.334,769.479,350.676Z" transform="translate(-604.168 -323.42)" fill="#fff"/>
    <path id="Path_385" d="M623.375,418.553c-6.732.993-12.211,1.954-17.73,2.544-2.461.263-4.053-.976-2.783-3.777.261-.577,1.081-1.312,1.612-1.287a7.964,7.964,0,0,0,7.6-3.992,2.474,2.474,0,0,1,2.319-.635C617.352,413.578,620.161,415.954,623.375,418.553Z" transform="translate(-484.14 -379.198)" fill="#fff"/>
    <path id="Path_386" d="M952.625,773.268c-.753-4.927.787-7.391,6.507-10.524l1.171,3.442c4.378.877,6.067,5.136,3.643,10-1.452-2.163-5.158.327-6.111-3.377C957.767,772.542,954.578,773.082,952.625,773.268Z" transform="translate(-745.41 -641.521)" fill="#fff"/>
    <path id="Path_387" d="M2818.763,1638.433c-1.831-.291-3.719-5.049-1.381-7.777,2.446-2.853,2.027-5.037.36-7.788a7.072,7.072,0,0,1-.5-3.239c0-.112,1.42-.548,1.571-.355a11.338,11.338,0,0,1,1.546,2.775c1.1,2.756,2.373,5.28,5.892,5.566.951,2.719-.007,4.5-2.432,6.037C2822.108,1634.739,2820.8,1636.465,2818.763,1638.433Z" transform="translate(-2136.617 -1280.813)" fill="#fff"/>
    <path id="Path_388" d="M2312.99,1340.886c-3.477-1.347-7.07,2.8-10.75-1.3-.99-1.1-3.968-.245-5.926-.726-1.266-.311-2.337-1.421-3.5-2.173,1.086-.914,2.216-2.649,3.249-2.593a54.813,54.813,0,0,1,10.5,1.666,49.239,49.239,0,0,1,7.011,2.93Q2313.286,1339.786,2312.99,1340.886Z" transform="translate(-1745.886 -1067.982)" fill="#fff"/>
    <path id="Path_389" d="M1336.527,707.631c3.243.033,4.9.483,3.834,3.357a5.113,5.113,0,0,0-.328,2.233c.275,2.611-.342,3.559-3.337,4.561-4.447,1.487-6.654,3.359-5.265-3.64.439-2.212-.7-3.725,2.476-4.134C1335.038,709.863,1335.969,708.17,1336.527,707.631Z" transform="translate(-1027.982 -600.384)" fill="#fff"/>
    <path id="Path_390" d="M683.559,455.63l3.45,2.254a18.644,18.644,0,0,1-.559-3.461c.039-.75.393-2.018.821-2.115a13.56,13.56,0,0,1,4.481-.2c.306.034.537,1.427.66,2.217a12.844,12.844,0,0,1,.366,4.023c-.259,1.476-.738,3.482-1.792,4.083a4.369,4.369,0,0,1-4.186-.833C685.459,459.948,681.441,459.556,683.559,455.63Z" transform="translate(-544.256 -409.584)" fill="#fff"/>
    <path id="Path_391" d="M722.13,1063.586c1.658-.6,3.3-1.642,4.978-1.707,6.065-.232,10.835,3.436,15.937,5.943,1.84.9,1.556,2.355-.508,3.288-3.1,1.4-4.855.756-6.357-2.582-1.342-2.98-7.663-5.326-11.539-4.28-.68.184-1.357.38-2.035.57Z" transform="translate(-573.497 -864.793)" fill="#fff"/>
    <path id="Path_392" d="M2540.529,823.21c-2.383,0-3.823.065-5.254-.025a5.528,5.528,0,0,1-2.377-.618,1.754,1.754,0,0,1,.006-1.651c2.269-2.241,2.118-4.738,1.223-7.5-.185-.571.516-1.43.423-1.2a60.006,60.006,0,0,1,7.073,4.912c.794.723.943,2.685.651,3.907C2542.013,822.125,2540.738,822.97,2540.529,823.21Z" transform="translate(-1924.933 -678.422)" fill="#fff"/>
    <path id="Path_393" d="M2384.219,420.791c4.8-7.108,5.5,1.046,8.548.6-.3.769-.412,1.4-.566,1.408a100.367,100.367,0,0,1-11.466.462c-.887-.044-1.9-2.059-2.387-3.345-.188-.5.976-2.163,1.434-2.128a11.258,11.258,0,0,1,3.646,1.321C2383.693,419.23,2383.761,419.776,2384.219,420.791Z" transform="translate(-1809.712 -384.038)" fill="#fff"/>
    <path id="Path_394" d="M2409.163,1106.449c-2.24,2.087-4.477,1.654-6.467-.132a3.6,3.6,0,0,1-1.216-2.843,34.027,34.027,0,0,1,2.809-6.556,2.491,2.491,0,0,1,2.177-1.022,3.206,3.206,0,0,1,1.909,2.015C2408.816,1100.74,2408.929,1103.62,2409.163,1106.449Z" transform="translate(-1826.961 -890.165)" fill="#fff"/>
    <path id="Path_395" d="M2433.3,1196.472c-.838-.953-1.691-1.878-2.494-2.845-.717-.865-1.379-1.777-2.115-2.734l-2.885,1.959-.994-.66c.92-1.564,1.818-3.144,2.847-4.634.039-.057,1.349.765,2.209,1.258,1.466-1.267,3.1-3.655,5.573-1.315C2437.733,1189.675,2436.912,1192.825,2433.3,1196.472Z" transform="translate(-1844.405 -957.83)" fill="#fff"/>
    <path id="Path_396" d="M1554.621,353.69c-2.136-.533-3.632-.46-4.26-1.162-1.074-1.2-1.6-2.889-2.362-4.372a21.642,21.642,0,0,1,4.145-.954c2.508-.092,5.028.1,7.539.236a10.986,10.986,0,0,1,2.039.505c-.18.683-.14,1.712-.578,1.991C1558.853,351.394,1556.441,352.664,1554.621,353.69Z" transform="translate(-1189.94 -331.335)" fill="#fff"/>
    <path id="Path_397" d="M557.945,407.306l-2.953-2.935a18.989,18.989,0,0,1,3.177-2.557,58.63,58.63,0,0,1,7.762-3.315c.713-.24,2.548.588,2.566.982.049,1.119-.7,3.277-.917,3.25-3.126-.38-4.473,2.029-6.372,3.636C560.6,406.88,559.549,406.87,557.945,407.306Z" transform="translate(-448.742 -369.61)" fill="#fff"/>
    <path id="Path_398" d="M2521.593,734.21l-3.767-14.893c.69-.421.961-.714,1.116-.662,1.414.471,4.913,7.579,4.768,8.988a7.277,7.277,0,0,0,.828,2.724c.464,1.348.945,2.69,1.419,4.034Z" transform="translate(-1913.835 -608.609)" fill="#fff"/>
    <path id="Path_399" d="M689.56,413.933c.857-.325,2.033-1.152,3.16-1.091s3.086.979,3.109,1.58c.053,1.4-.419,3.456-1.428,4.139a6.063,6.063,0,0,1-9.273-4.164c-.1-.692.6-1.5.93-2.257Z" transform="translate(-545.872 -379.826)" fill="#fff"/>
    <path id="Path_400" d="M802.994,1092.952l3.553-.4c.6-1.206.885-2.9,1.815-3.408,2.155-1.17,6.4,1.533,8.777,5.2H803.074Q803.034,1093.645,802.994,1092.952Z" transform="translate(-633.856 -884.943)" fill="#fff"/>
    <path id="Path_401" d="M2579.458,1687.917c-1.1,5.606-2.81,7.548-6.2,6.7-2.888-.726-2.685-3.022-2.1-5.225C2571.92,1686.557,2574.381,1686.152,2579.458,1687.917Z" transform="translate(-1953.379 -1331.295)" fill="#fff"/>
    <path id="Path_402" d="M733.052,460.989c-.684-8.671,2.559-10.921,11.155-7.559Z" transform="translate(-581.584 -409.533)" fill="#fff"/>
    <path id="Path_403" d="M2047.633,336.957c-1.222.36-2.664.421-3.627,1.132-3.767,2.782-5.729.856-7.405-2.426,2.106-1.311,3.989-2.867,6.151-3.651.947-.343,2.758.6,3.638,1.5.777.787.8,2.313,1.163,3.513Z" transform="translate(-1554.64 -319.962)" fill="#fff"/>
    <path id="Path_404" d="M687.317,368.114a44.393,44.393,0,0,1,5.568,4.157c.652.659.415,2.2.583,3.337a18.061,18.061,0,0,1-4.607.076,6.87,6.87,0,0,1-2.872-2.172,28.815,28.815,0,0,1-2.27-3.038Z" transform="translate(-544.827 -346.963)" fill="#fff"/>
    <path id="Path_405" d="M780.827,584.237c-1.688,1.145-3.01,2.138-4.426,2.969a26.741,26.741,0,0,1-3.112,1.353c-.584-1.49-1.525-2.959-1.613-4.478a3.526,3.526,0,0,1,2.028-2.635C776.611,580.488,779.216,581.032,780.827,584.237Z" transform="translate(-610.477 -505.879)" fill="#fff"/>
    <path id="Path_406" d="M2066.8,351.8c3.922-.15,4.709,2.9,6.151,5.862-4.115,1.539-7.2-.007-10.567-1.86l4.489-4.061Z" transform="translate(-1573.885 -334.742)" fill="#fff"/>
    <path id="Path_407" d="M2110.547,372.369c-1.677-1.542-3.637-2.787-3.463-3.285.574-1.642,2.14-4.349,2.927-4.221,1.842.3,3.453,2.014,5.158,3.155Z" transform="translate(-1607.242 -344.533)" fill="#fff"/>
    <path id="Path_408" d="M2074.353,1184.075c4.444,2.329,5.008,5.007,4.517,7.886a3.613,3.613,0,0,1-2.326,2.322c-.642.148-2.264-1.109-2.332-1.842A72.541,72.541,0,0,1,2074.353,1184.075Z" transform="translate(-1582.646 -956.01)" fill="#fff"/>
    <path id="Path_409" d="M743.247,378.516c-1.771,1.483-3,3.217-3.829,3.042-1.242-.263-3.007-1.832-3.049-2.9-.041-1.04,1.672-2.746,2.883-3.033C740.1,375.417,741.4,377.1,743.247,378.516Z" transform="translate(-584.125 -352.553)" fill="#fff"/>
    <path id="Path_410" d="M2472.514,941.759a23.529,23.529,0,0,1,.858,4.433,18.161,18.161,0,0,1-.846,3.877c-.7-.836-1.376-1.691-2.1-2.5C2467.963,944.8,2468.06,944.425,2472.514,941.759Z" transform="translate(-1877.25 -775.141)" fill="#fff"/>
    <path id="Path_411" d="M951.919,1810.4l-8.359,2.38V1808.6C946.35,1808.765,949.261,1805.978,951.919,1810.4Z" transform="translate(-738.777 -1421.631)" fill="#fff"/>
    <path id="Path_412" d="M2403.27,1034.49a14.558,14.558,0,0,1,1.321,3.712,7.932,7.932,0,0,1-.929,3.483c-.069.162-1.692.059-1.894-.309a7.689,7.689,0,0,1-1.215-3.7c.041-1.081,1-2.127,1.548-3.189Z" transform="translate(-1826.299 -844.357)" fill="#fff"/>
    <path id="Path_413" d="M698.97,515.5c-.6,1.007-1,2.6-1.844,2.882-1.241.421-2.8-.089-4.22-.2.211-1.061.093-2.711.706-3.053a8.093,8.093,0,0,1,3.929-.479c.523.011,1.033.627,1.552.97Z" transform="translate(-551.684 -456.322)" fill="#fff"/>
    <path id="Path_414" d="M2445.7,426.544a53.615,53.615,0,0,1,6.477.079c.884.114,1.658,1.079,2.483,1.658-.746.57-1.488,1.614-2.241,1.622C2449.845,429.931,2446.986,430.173,2445.7,426.544Z" transform="translate(-1860.001 -390.532)" fill="#fff"/>
    <path id="Path_415" d="M633.042,375.168l-7.221,1.408-.761-1.258c1.419-1.052,2.713-2.587,4.3-3,1.209-.313,2.788.8,4.2,1.279Z" transform="translate(-501.043 -350.062)" fill="#fff"/>
    <path id="Path_416" d="M2396.924,1169.247l-4.342,9.1c-1.484-3.474-1.484-3.474,2.943-9.681Z" transform="translate(-1819.687 -944.509)" fill="#fff"/>
    <path id="Path_417" d="M2661.758,1314.4c.705,4.207-.722,6.354-3.553,5.982a2.973,2.973,0,0,1-1.864-1.4c-.152-.266.607-1.256,1.144-1.664.662-.5,1.569-.672,2.284-1.121A17.462,17.462,0,0,0,2661.758,1314.4Z" transform="translate(-2017.21 -1053.286)" fill="#fff"/>
    <path id="Path_418" d="M2312.782,1085.236c2.331,2.391,1.44,4.315-.291,5.891a2.77,2.77,0,0,1-2.558-.359C2308.872,1088.124,2310.3,1086.511,2312.782,1085.236Z" transform="translate(-1758.396 -882.235)" fill="#fff"/>
    <path id="Path_419" d="M2707.206,488.874c1.408-4,3.133-5.4,5.95-4.425.52.18.6,1.625.887,2.486Z" transform="translate(-2055.191 -433.575)" fill="#fff"/>
    <path id="Path_420" d="M2476.364,1257.166c-4.227-1.865-4.234-2.331,0-8.832Z" transform="translate(-1880.519 -1003.974)" fill="#fff"/>
    <path id="Path_421" d="M635.09,391.663c-.017,4.571-4.483,2.63-5.918,5.107C628.155,392.411,628.155,392.411,635.09,391.663Z" transform="translate(-503.75 -364.54)" fill="#fff"/>
    <path id="Path_422" d="M2414.227,1359.136l-7.415,4.064C2409.36,1357.149,2410.365,1356.608,2414.227,1359.136Z" transform="translate(-1830.973 -1085.616)" fill="#fff"/>
    <path id="Path_423" d="M2678,1299.357l-3.547-6.48C2679.252,1293.188,2680.456,1295.361,2678,1299.357Z" transform="translate(-2030.745 -1037.222)" fill="#fff"/>
    <path id="Path_424" d="M2531.01,1289.884c1.345-5.435,1.663-5.558,6.678-2.866Z" transform="translate(-1923.677 -1031.565)" fill="#fff"/>
    <path id="Path_425" d="M2769.54,1479.182c4.6-1.584,5.862-.648,5.416,3.987Z" transform="translate(-2101.719 -1175.75)" fill="#fff"/>
    <path id="Path_426" d="M736.62,435c-.369-1.037-1.281-2.3-.966-3.053a4.033,4.033,0,0,1,2.795-1.872,2.708,2.708,0,0,1,2.137,1.641c.072,1.158-.634,2.363-1.016,3.549Z" transform="translate(-583.544 -393.204)" fill="#fff"/>
    <path id="Path_427" d="M731.449,351.424l3.4,2.4-2.732,2-2.124-2.952Z" transform="translate(-579.365 -334.505)" fill="#fff"/>
    <path id="Path_428" d="M2436.217,1148.45l-4.916-2.259c.5-.719.936-1.981,1.523-2.058C2435.034,1143.843,2436.377,1144.871,2436.217,1148.45Z" transform="translate(-1849.251 -926.162)" fill="#fff"/>
    <path id="Path_429" d="M1017.129,517.924l-6.4.766c1.093-1.612,1.548-2.979,2.17-3.061a16.846,16.846,0,0,1,4.3.478Q1017.167,517.015,1017.129,517.924Z" transform="translate(-788.916 -457.04)" fill="#fff"/>
    <path id="Path_430" d="M843.642,546.884,845.686,543a15.432,15.432,0,0,1,1.859,1.215,41.093,41.093,0,0,1-2.135,3.66Z" transform="translate(-664.196 -477.499)" fill="#fff"/>
    <path id="Path_431" d="M1480.731,878.167c-1.176-4.229-1.068-4.49,2.57-4.669l-1.294,5.059Z" transform="translate(-1139.233 -724.19)" fill="#fff"/>
    <path id="Path_432" d="M2409.7,1147.655l3.563,2.972q-.113.443-.227.886c-1.192,0-2.649.415-3.493-.127-.72-.463-.734-2.024-1.059-3.1Z" transform="translate(-1832.223 -928.826)" fill="#fff"/>
    <path id="Path_433" d="M777.388,1108.058c-1.611,0-3.225.032-4.828-.076a8.639,8.639,0,0,1-.195-1.7l4.951-.243Q777.352,1107.05,777.388,1108.058Z" transform="translate(-610.994 -897.766)" fill="#fff"/>
</svg>
